{
    "asset" : {
        "generator" : "Khronos glTF Blender I/O v3.3.32",
        "version" : "2.0"
    },
    "scene" : 0,
    "scenes" : [
        {
            "name" : "Scene",
            "nodes" : [
                4
            ]
        }
    ],
    "nodes" : [
        {
            "mesh" : 0,
            "name" : "MASK__lambert2_0"
        },
        {
            "children" : [
                0
            ],
            "name" : "MASK_"
        },
        {
            "children" : [
                1
            ],
            "name" : "RootNode"
        },
        {
            "children" : [
                2
            ],
            "name" : "Surgical Mask.fbx"
        },
        {
            "children" : [
                3
            ],
            "name" : "Sketchfab_model"
        }
    ],
    "materials" : [
        {
            "doubleSided" : true,
            "name" : "lambert2",
            "normalTexture" : {
                "index" : 0
            },
            "pbrMetallicRoughness" : {
                "baseColorTexture" : {
                    "index" : 1
                },
                "metallicFactor" : 0,
                "roughnessFactor" : 0.6000000238418579
            }
        }
    ],
    "meshes" : [
        {
            "name" : "MASK__lambert2_0",
            "primitives" : [
                {
                    "attributes" : {
                        "POSITION" : 0,
                        "NORMAL" : 1,
                        "TEXCOORD_0" : 2,
                        "TEXCOORD_1" : 3
                    },
                    "indices" : 4,
                    "material" : 0
                }
            ]
        }
    ],
    "textures" : [
        {
            "sampler" : 0,
            "source" : 0
        },
        {
            "sampler" : 0,
            "source" : 1
        }
    ],
    "images" : [
        {
            "bufferView" : 5,
            "mimeType" : "image/png",
            "name" : "Image_1"
        },
        {
            "bufferView" : 6,
            "mimeType" : "image/png",
            "name" : "Image_0"
        }
    ],
    "accessors" : [
        {
            "bufferView" : 0,
            "componentType" : 5126,
            "count" : 646,
            "max" : [
                8.177974700927734,
                22.150894165039062,
                13.692675590515137
            ],
            "min" : [
                -8.103462219238281,
                0.6922760009765625,
                -8.986199378967285
            ],
            "type" : "VEC3"
        },
        {
            "bufferView" : 1,
            "componentType" : 5126,
            "count" : 646,
            "type" : "VEC3"
        },
        {
            "bufferView" : 2,
            "componentType" : 5126,
            "count" : 646,
            "type" : "VEC2"
        },
        {
            "bufferView" : 3,
            "componentType" : 5126,
            "count" : 646,
            "type" : "VEC2"
        },
        {
            "bufferView" : 4,
            "componentType" : 5123,
            "count" : 2730,
            "type" : "SCALAR"
        }
    ],
    "bufferViews" : [
        {
            "buffer" : 0,
            "byteLength" : 7752,
            "byteOffset" : 0,
            "target" : 34962
        },
        {
            "buffer" : 0,
            "byteLength" : 7752,
            "byteOffset" : 7752,
            "target" : 34962
        },
        {
            "buffer" : 0,
            "byteLength" : 5168,
            "byteOffset" : 15504,
            "target" : 34962
        },
        {
            "buffer" : 0,
            "byteLength" : 5168,
            "byteOffset" : 20672,
            "target" : 34962
        },
        {
            "buffer" : 0,
            "byteLength" : 5460,
            "byteOffset" : 25840,
            "target" : 34963
        },
        {
            "buffer" : 0,
            "byteLength" : 306205,
            "byteOffset" : 31300
        },
        {
            "buffer" : 0,
            "byteLength" : 143487,
            "byteOffset" : 337508
        }
    ],
    "samplers" : [
        {
            "magFilter" : 9729,
            "minFilter" : 9987
        }
    ],
    "buffers" : [
        {
            "byteLength" : 480996,
            "uri" : "data:application/octet-stream;base64,"
        }
    ]
}
